<svg width="24" height="24" viewBox="0 0 24 24" fill="none" xmlns="http://www.w3.org/2000/svg">
<path d="M4.5 20.25C4.30189 20.2474 4.11263 20.1676 3.97253 20.0275C3.83244 19.8874 3.75259 19.6981 3.75 19.5V4.5C3.75 4.30109 3.82902 4.11032 3.96967 3.96967C4.11032 3.82902 4.30109 3.75 4.5 3.75C4.69891 3.75 4.88968 3.82902 5.03033 3.96967C5.17098 4.11032 5.25 4.30109 5.25 4.5V19.5C5.24741 19.6981 5.16756 19.8874 5.02747 20.0275C4.88737 20.1676 4.69811 20.2474 4.5 20.25Z" fill="#42722D"/>
<path d="M19.5 20.2501H4.5C4.30109 20.2501 4.11032 20.1711 3.96967 20.0304C3.82902 19.8898 3.75 19.699 3.75 19.5001C3.75 19.3012 3.82902 19.1104 3.96967 18.9698C4.11032 18.8291 4.30109 18.7501 4.5 18.7501H19.5C19.6989 18.7501 19.8897 18.8291 20.0303 18.9698C20.171 19.1104 20.25 19.3012 20.25 19.5001C20.25 19.699 20.171 19.8898 20.0303 20.0304C19.8897 20.1711 19.6989 20.2501 19.5 20.2501ZM14 14.7501C13.9015 14.7506 13.8038 14.7313 13.7128 14.6936C13.6218 14.6558 13.5392 14.6002 13.47 14.5301L11 12.0601L8.53 14.5301C8.38783 14.6626 8.19978 14.7347 8.00548 14.7313C7.81118 14.7278 7.62579 14.6491 7.48838 14.5117C7.35097 14.3743 7.27225 14.1889 7.26883 13.9946C7.2654 13.8003 7.33752 13.6123 7.47 13.4701L10.47 10.4701C10.6106 10.3296 10.8012 10.2508 11 10.2508C11.1988 10.2508 11.3894 10.3296 11.53 10.4701L14 12.9401L17.47 9.47009C17.6122 9.33761 17.8002 9.26549 17.9945 9.26892C18.1888 9.27234 18.3742 9.35106 18.5116 9.48847C18.649 9.62588 18.7277 9.81127 18.7312 10.0056C18.7346 10.1999 18.6625 10.3879 18.53 10.5301L14.53 14.5301C14.4608 14.6002 14.3782 14.6558 14.2872 14.6936C14.1962 14.7313 14.0985 14.7506 14 14.7501Z" fill="#42722D"/>
<path d="M18.5 13.84C18.3019 13.8374 18.1126 13.7576 17.9725 13.6175C17.8324 13.4774 17.7526 13.2881 17.75 13.09V10.25H15C14.8011 10.25 14.6103 10.171 14.4697 10.0303C14.329 9.88968 14.25 9.69891 14.25 9.5C14.25 9.30109 14.329 9.11032 14.4697 8.96967C14.6103 8.82902 14.8011 8.75 15 8.75H18.5C18.6981 8.75259 18.8874 8.83244 19.0275 8.97253C19.1676 9.11263 19.2474 9.30189 19.25 9.5V13.09C19.2474 13.2881 19.1676 13.4774 19.0275 13.6175C18.8874 13.7576 18.6981 13.8374 18.5 13.84Z" fill="#42722D"/>
</svg>
