<svg width="20" height="19" viewBox="0 0 20 19" fill="none" xmlns="http://www.w3.org/2000/svg">
<path d="M17.8125 4.5H14.625V1.3125C14.625 0.964403 14.4867 0.630564 14.2406 0.384422C13.9944 0.138281 13.6606 0 13.3125 0H1.3125C0.964403 0 0.630564 0.138281 0.384422 0.384422C0.138281 0.630564 0 0.964403 0 1.3125V13.3125C0.000123442 13.4187 0.030299 13.5227 0.0870375 13.6124C0.143776 13.7022 0.22476 13.774 0.320625 13.8197C0.395977 13.8563 0.478712 13.8752 0.5625 13.875C0.691102 13.8751 0.815842 13.8311 0.915938 13.7503L4.47281 10.875H4.5V14.0625C4.5 14.4106 4.63828 14.7444 4.88442 14.9906C5.13056 15.2367 5.4644 15.375 5.8125 15.375H14.6522L18.2091 18.2503C18.3092 18.3311 18.4339 18.3751 18.5625 18.375C18.6463 18.3752 18.729 18.3563 18.8044 18.3197C18.9002 18.274 18.9812 18.2022 19.038 18.1124C19.0947 18.0227 19.1249 17.9187 19.125 17.8125V5.8125C19.125 5.4644 18.9867 5.13056 18.7406 4.88442C18.4944 4.63828 18.1606 4.5 17.8125 4.5ZM4.27313 9.75C4.14452 9.74994 4.01978 9.79395 3.91969 9.87469L1.125 12.1341V1.3125C1.125 1.26277 1.14475 1.21508 1.17992 1.17992C1.21508 1.14475 1.26277 1.125 1.3125 1.125H13.3125C13.3622 1.125 13.4099 1.14475 13.4451 1.17992C13.4802 1.21508 13.5 1.26277 13.5 1.3125V9.5625C13.5 9.61223 13.4802 9.65992 13.4451 9.69508C13.4099 9.73025 13.3622 9.75 13.3125 9.75H4.27313ZM18 16.6341L15.2053 14.3747C15.1052 14.2939 14.9805 14.2499 14.8519 14.25H5.8125C5.76277 14.25 5.71508 14.2302 5.67992 14.1951C5.64475 14.1599 5.625 14.1122 5.625 14.0625V10.875H13.3125C13.6606 10.875 13.9944 10.7367 14.2406 10.4906C14.4867 10.2444 14.625 9.9106 14.625 9.5625V5.625H17.8125C17.8622 5.625 17.9099 5.64475 17.9451 5.67992C17.9802 5.71508 18 5.76277 18 5.8125V16.6341Z" fill="white"/>
</svg>
