<svg width="20" height="21" viewBox="0 0 20 21" fill="none" xmlns="http://www.w3.org/2000/svg">
<path d="M7.5 0C6.70435 0 5.94129 0.316071 5.37868 0.87868C4.81607 1.44129 4.5 2.20435 4.5 3V6.3105C4.99036 6.17187 5.4925 6.07898 6 6.033V3C6 2.60218 6.15804 2.22064 6.43934 1.93934C6.72064 1.65804 7.10218 1.5 7.5 1.5H12V5.25C12 5.84674 12.2371 6.41903 12.659 6.84099C13.081 7.26295 13.6533 7.5 14.25 7.5H18V18C18 18.3978 17.842 18.7794 17.5607 19.0607C17.2794 19.342 16.8978 19.5 16.5 19.5H13.1145C12.6441 20.0703 12.0993 20.5748 11.4945 21H16.5C17.2956 21 18.0587 20.6839 18.6213 20.1213C19.1839 19.5587 19.5 18.7956 19.5 18V6.621C19.4995 6.02446 19.2621 5.45255 18.84 5.031L14.469 0.6585C14.0472 0.236973 13.4753 0.000127322 12.879 0H7.5ZM17.6895 6H14.25C14.0511 6 13.8603 5.92098 13.7197 5.78033C13.579 5.63968 13.5 5.44891 13.5 5.25V1.8105L17.6895 6ZM13.5 14.25C13.5 16.0402 12.7888 17.7571 11.523 19.023C10.2571 20.2888 8.54021 21 6.75 21C4.95979 21 3.2429 20.2888 1.97703 19.023C0.711159 17.7571 0 16.0402 0 14.25C0 12.4598 0.711159 10.7429 1.97703 9.47703C3.2429 8.21116 4.95979 7.5 6.75 7.5C8.54021 7.5 10.2571 8.21116 11.523 9.47703C12.7888 10.7429 13.5 12.4598 13.5 14.25ZM7.5 11.25C7.5 11.0511 7.42098 10.8603 7.28033 10.7197C7.13968 10.579 6.94891 10.5 6.75 10.5C6.55109 10.5 6.36032 10.579 6.21967 10.7197C6.07902 10.8603 6 11.0511 6 11.25V13.5H3.75C3.55109 13.5 3.36032 13.579 3.21967 13.7197C3.07902 13.8603 3 14.0511 3 14.25C3 14.4489 3.07902 14.6397 3.21967 14.7803C3.36032 14.921 3.55109 15 3.75 15H6V17.25C6 17.4489 6.07902 17.6397 6.21967 17.7803C6.36032 17.921 6.55109 18 6.75 18C6.94891 18 7.13968 17.921 7.28033 17.7803C7.42098 17.6397 7.5 17.4489 7.5 17.25V15H9.75C9.94891 15 10.1397 14.921 10.2803 14.7803C10.421 14.6397 10.5 14.4489 10.5 14.25C10.5 14.0511 10.421 13.8603 10.2803 13.7197C10.1397 13.579 9.94891 13.5 9.75 13.5H7.5V11.25Z" fill="#4F8936"/>
</svg>
