<svg width="24" height="24" viewBox="0 0 24 24" fill="none" xmlns="http://www.w3.org/2000/svg">
<path d="M15.175 8.32499C15.6584 8.80833 16.0127 9.35833 16.238 9.975C16.4634 10.5917 16.5424 11.225 16.475 11.875C16.475 12.125 16.3834 12.3377 16.2 12.513C16.0167 12.6883 15.8 12.7757 15.55 12.775C15.3 12.7743 15.0874 12.687 14.912 12.513C14.7367 12.339 14.6494 12.1263 14.65 11.875C14.7334 11.4417 14.7084 11.025 14.575 10.625C14.4417 10.225 14.2334 9.88333 13.95 9.6C13.6667 9.31666 13.325 9.09999 12.925 8.94999C12.525 8.79999 12.1 8.76666 11.65 8.85C11.4 8.85 11.1874 8.75833 11.012 8.57499C10.8367 8.39166 10.7494 8.17499 10.75 7.92499C10.7507 7.67499 10.8384 7.46266 11.013 7.28799C11.1877 7.11333 11.4 7.02566 11.65 7.02499C12.2834 6.95833 12.9084 7.03766 13.525 7.26299C14.1417 7.48833 14.6917 7.84233 15.175 8.32499ZM12 5.99999C11.6834 5.99999 11.375 6.01233 11.075 6.03699C10.775 6.06166 10.475 6.10766 10.175 6.17499C9.89169 6.22499 9.63735 6.18333 9.41202 6.04999C9.18669 5.91666 9.03269 5.71666 8.95002 5.44999C8.86735 5.18333 8.89669 4.92499 9.03802 4.67499C9.17935 4.42499 9.38335 4.27499 9.65002 4.22499C10.0334 4.14166 10.421 4.08333 10.813 4.04999C11.205 4.01666 11.6007 3.99999 12 3.99999C14.2834 3.99999 16.371 4.59999 18.263 5.79999C20.155 6.99999 21.6007 8.61666 22.6 10.65C22.6667 10.7833 22.7167 10.921 22.75 11.063C22.7834 11.205 22.8 11.3507 22.8 11.5C22.8 11.6493 22.7874 11.7953 22.762 11.938C22.7367 12.0807 22.691 12.218 22.625 12.35C22.325 13.0167 21.9544 13.6417 21.513 14.225C21.0717 14.8083 20.584 15.3417 20.05 15.825C19.85 16.0083 19.6167 16.0833 19.35 16.05C19.0834 16.0167 18.8667 15.8833 18.7 15.65C18.5334 15.4167 18.4627 15.1623 18.488 14.887C18.5134 14.6117 18.6257 14.3827 18.825 14.2C19.225 13.8167 19.5917 13.4 19.925 12.95C20.2584 12.5 20.55 12.0167 20.8 11.5C19.9667 9.81666 18.7624 8.47933 17.187 7.48799C15.6117 6.49666 13.8827 6.00066 12 5.99999ZM12 19C9.76669 19 7.72502 18.396 5.87502 17.188C4.02502 15.98 2.56669 14.3923 1.50002 12.425C1.41669 12.2917 1.35435 12.146 1.31302 11.988C1.27169 11.83 1.25069 11.6673 1.25002 11.5C1.24935 11.3327 1.26602 11.1743 1.30002 11.025C1.33402 10.8757 1.39235 10.7257 1.47502 10.575C1.80835 9.90833 2.19602 9.27099 2.63802 8.66299C3.08002 8.055 3.58402 7.50066 4.15002 6.99999L2.07502 4.89999C1.89169 4.69999 1.80435 4.46266 1.81302 4.18799C1.82169 3.91333 1.91735 3.68399 2.10002 3.49999C2.28269 3.31599 2.51602 3.22433 2.80002 3.22499C3.08402 3.22566 3.31735 3.31733 3.50002 3.49999L20.5 20.5C20.6834 20.6833 20.7794 20.9127 20.788 21.188C20.7967 21.4633 20.7007 21.7007 20.5 21.9C20.3167 22.0833 20.0834 22.175 19.8 22.175C19.5167 22.175 19.2834 22.0833 19.1 21.9L15.6 18.45C15.0167 18.6333 14.425 18.771 13.825 18.863C13.225 18.955 12.6167 19.0007 12 19ZM5.55002 8.39999C5.06669 8.83333 4.62502 9.30833 4.22502 9.82499C3.82502 10.3417 3.48335 10.9 3.20002 11.5C4.03335 13.1833 5.23769 14.521 6.81302 15.513C8.38835 16.505 10.1174 17.0007 12 17C12.3334 17 12.6584 16.9793 12.975 16.938C13.2917 16.8967 13.6167 16.8507 13.95 16.8L13.05 15.85C12.8667 15.9 12.6917 15.9377 12.525 15.963C12.3584 15.9883 12.1834 16.0007 12 16C10.75 16 9.68735 15.5627 8.81202 14.688C7.93669 13.8133 7.49935 12.7507 7.50002 11.5C7.50002 11.3167 7.51269 11.1417 7.53802 10.975C7.56335 10.8083 7.60069 10.6333 7.65002 10.45L5.55002 8.39999Z" fill="#4F4F4F"/>
</svg>
