<svg width="24" height="24" viewBox="0 0 24 24" fill="none" xmlns="http://www.w3.org/2000/svg">
<path d="M12 16C13.25 16 14.3127 15.5627 15.188 14.688C16.0634 13.8133 16.5007 12.7507 16.5 11.5C16.4994 10.2493 16.062 9.187 15.188 8.313C14.314 7.439 13.2514 7.00133 12 7C10.7487 6.99867 9.68637 7.43633 8.81304 8.313C7.93971 9.18967 7.50204 10.252 7.50004 11.5C7.49804 12.748 7.93571 13.8107 8.81304 14.688C9.69037 15.5653 10.7527 16.0027 12 16ZM12 14.2C11.25 14.2 10.6127 13.9373 10.088 13.412C9.56337 12.8867 9.30071 12.2493 9.30004 11.5C9.29937 10.7507 9.56204 10.1133 10.088 9.588C10.614 9.06267 11.2514 8.8 12 8.8C12.7487 8.8 13.3864 9.06267 13.913 9.588C14.4397 10.1133 14.702 10.7507 14.7 11.5C14.698 12.2493 14.4357 12.887 13.913 13.413C13.3904 13.939 12.7527 14.2013 12 14.2ZM12 19C9.76671 19 7.72904 18.4 5.88704 17.2C4.04504 16 2.59104 14.4167 1.52504 12.45C1.44171 12.3 1.37937 12.146 1.33804 11.988C1.29671 11.83 1.27571 11.6673 1.27504 11.5C1.27437 11.3327 1.29537 11.17 1.33804 11.012C1.38071 10.854 1.44304 10.7 1.52504 10.55C2.59171 8.58333 4.04604 7 5.88804 5.8C7.73004 4.6 9.76737 4 12 4C14.2327 4 16.2704 4.6 18.113 5.8C19.9557 7 21.4097 8.58333 22.475 10.55C22.5584 10.7 22.621 10.8543 22.663 11.013C22.705 11.1717 22.7257 11.334 22.725 11.5C22.7244 11.666 22.7037 11.8287 22.663 11.988C22.6224 12.1473 22.5597 12.3013 22.475 12.45C21.4084 14.4167 19.9544 16 18.113 17.2C16.2717 18.4 14.234 19 12 19ZM12 17C13.8834 17 15.6127 16.5043 17.188 15.513C18.7634 14.5217 19.9674 13.184 20.8 11.5C19.9667 9.81667 18.7624 8.47933 17.187 7.488C15.6117 6.49667 13.8827 6.00067 12 6C10.1174 5.99933 8.38837 6.49533 6.81304 7.488C5.23771 8.48067 4.03337 9.818 3.20004 11.5C4.03337 13.1833 5.23771 14.521 6.81304 15.513C8.38837 16.505 10.1174 17.0007 12 17Z" fill="#4F4F4F"/>
</svg>
