<svg width="17" height="17" viewBox="0 0 17 17" fill="none" xmlns="http://www.w3.org/2000/svg">
<path d="M8.29167 13.3333C8.58333 13.3333 8.83 13.2325 9.03167 13.0308C9.23333 12.8292 9.33389 12.5828 9.33333 12.2917C9.33278 12.0006 9.23222 11.7539 9.03167 11.5517C8.83111 11.3494 8.58444 11.2489 8.29167 11.25C7.99889 11.2511 7.7525 11.3519 7.5525 11.5525C7.3525 11.7531 7.25167 11.9994 7.25 12.2917C7.24833 12.5839 7.34917 12.8306 7.5525 13.0317C7.75583 13.2328 8.00222 13.3333 8.29167 13.3333ZM8.33333 16.6667C7.18056 16.6667 6.09722 16.4478 5.08333 16.01C4.06945 15.5722 3.1875 14.9786 2.4375 14.2292C1.6875 13.4797 1.09389 12.5978 0.656668 11.5833C0.219446 10.5689 0.00055661 9.48556 1.05485e-06 8.33333C-0.000554501 7.18111 0.218334 6.09778 0.656668 5.08333C1.095 4.06889 1.68861 3.18694 2.4375 2.4375C3.18639 1.68806 4.06833 1.09444 5.08333 0.656667C6.09833 0.218889 7.18167 0 8.33333 0C9.485 0 10.5683 0.218889 11.5833 0.656667C12.5983 1.09444 13.4803 1.68806 14.2292 2.4375C14.9781 3.18694 15.5719 4.06889 16.0108 5.08333C16.4497 6.09778 16.6683 7.18111 16.6667 8.33333C16.665 9.48556 16.4461 10.5689 16.01 11.5833C15.5739 12.5978 14.9803 13.4797 14.2292 14.2292C13.4781 14.9786 12.5961 15.5725 11.5833 16.0108C10.5706 16.4492 9.48722 16.6678 8.33333 16.6667ZM8.33333 15C10.1944 15 11.7708 14.3542 13.0625 13.0625C14.3542 11.7708 15 10.1944 15 8.33333C15 6.47222 14.3542 4.89583 13.0625 3.60417C11.7708 2.3125 10.1944 1.66667 8.33333 1.66667C6.47222 1.66667 4.89583 2.3125 3.60417 3.60417C2.3125 4.89583 1.66667 6.47222 1.66667 8.33333C1.66667 10.1944 2.3125 11.7708 3.60417 13.0625C4.89583 14.3542 6.47222 15 8.33333 15ZM8.41667 4.75C8.76389 4.75 9.06611 4.86111 9.32333 5.08333C9.58056 5.30556 9.70889 5.58333 9.70833 5.91667C9.70833 6.22222 9.61472 6.49306 9.4275 6.72917C9.24028 6.96528 9.02833 7.1875 8.79167 7.39583C8.47222 7.67361 8.19111 7.97917 7.94833 8.3125C7.70556 8.64583 7.58389 9.02083 7.58333 9.4375C7.58333 9.63194 7.65639 9.79528 7.8025 9.9275C7.94861 10.0597 8.11861 10.1256 8.3125 10.125C8.52083 10.125 8.69806 10.0556 8.84417 9.91667C8.99028 9.77778 9.08389 9.60417 9.125 9.39583C9.18056 9.10417 9.30556 8.84389 9.5 8.615C9.69444 8.38611 9.90278 8.16722 10.125 7.95833C10.4444 7.65278 10.7189 7.31945 10.9483 6.95833C11.1778 6.59722 11.2922 6.19444 11.2917 5.75C11.2917 5.04167 11.0036 4.46194 10.4275 4.01083C9.85139 3.55972 9.18111 3.33389 8.41667 3.33333C7.88889 3.33333 7.38556 3.44444 6.90667 3.66667C6.42778 3.88889 6.06306 4.22917 5.8125 4.6875C5.71528 4.85417 5.68417 5.03139 5.71917 5.21917C5.75417 5.40694 5.84778 5.54917 6 5.64583C6.19445 5.75694 6.39583 5.79167 6.60417 5.75C6.8125 5.70833 6.98611 5.59028 7.125 5.39583C7.27778 5.1875 7.46889 5.02778 7.69833 4.91667C7.92778 4.80556 8.16722 4.75 8.41667 4.75Z" fill="#4F4F4F"/>
</svg>
