<svg width="17" height="17" viewBox="0 0 17 17" fill="none" xmlns="http://www.w3.org/2000/svg">
<path d="M8.33333 16.6667C6.38889 16.6667 4.66821 16.0765 3.1713 14.8963C1.67438 13.716 0.70216 12.2074 0.25463 10.3704C0.192901 10.1389 0.239197 9.92685 0.393518 9.73426C0.547839 9.54166 0.756173 9.42963 1.01852 9.39815C1.26543 9.36728 1.4892 9.41358 1.68981 9.53704C1.89043 9.66049 2.02932 9.84568 2.10648 10.0926C2.47685 11.4815 3.24074 12.6157 4.39815 13.4954C5.55555 14.375 6.86728 14.8148 8.33333 14.8148C10.1389 14.8148 11.6707 14.1861 12.9287 12.9287C14.1867 11.6713 14.8154 10.1395 14.8148 8.33333C14.8142 6.52716 14.1855 4.99568 12.9287 3.73889C11.6719 2.4821 10.1401 1.85309 8.33333 1.85185C7.26852 1.85185 6.27315 2.09877 5.34722 2.59259C4.4213 3.08642 3.64197 3.76543 3.00926 4.62963H4.62963C4.89197 4.62963 5.11204 4.71852 5.28981 4.8963C5.46759 5.07407 5.55617 5.29383 5.55555 5.55555C5.55494 5.81728 5.46605 6.03735 5.28889 6.21574C5.11173 6.39414 4.89197 6.48272 4.62963 6.48148H0.925926C0.66358 6.48148 0.443827 6.39259 0.266667 6.21481C0.0895063 6.03704 0.000617284 5.81728 0 5.55555V1.85185C0 1.58951 0.088889 1.36975 0.266667 1.19259C0.444444 1.01543 0.664197 0.926543 0.925926 0.925926C1.18765 0.925309 1.40772 1.0142 1.58611 1.19259C1.76451 1.37099 1.85309 1.59074 1.85185 1.85185V3.10185C2.63889 2.1142 3.59969 1.35031 4.73426 0.810185C5.86883 0.270062 7.06852 0 8.33333 0C9.49074 0 10.575 0.220062 11.5861 0.660185C12.5972 1.10031 13.4769 1.69414 14.225 2.44167C14.9731 3.1892 15.5673 4.06883 16.0074 5.08056C16.4475 6.09228 16.6673 7.17654 16.6667 8.33333C16.666 9.49012 16.4463 10.5744 16.0074 11.5861C15.5685 12.5978 14.9744 13.4775 14.225 14.225C13.4756 14.9725 12.596 15.5667 11.5861 16.0074C10.5762 16.4481 9.49197 16.6679 8.33333 16.6667ZM9.25926 7.96296L11.5741 10.2778C11.7438 10.4475 11.8287 10.6636 11.8287 10.9259C11.8287 11.1883 11.7438 11.4043 11.5741 11.5741C11.4043 11.7438 11.1883 11.8287 10.9259 11.8287C10.6636 11.8287 10.4475 11.7438 10.2778 11.5741L7.68518 8.98148C7.59259 8.88889 7.52315 8.78488 7.47685 8.66944C7.43055 8.55401 7.40741 8.43426 7.40741 8.31018V4.62963C7.40741 4.36728 7.4963 4.14753 7.67407 3.97037C7.85185 3.79321 8.0716 3.70432 8.33333 3.7037C8.59506 3.70309 8.81512 3.79197 8.99352 3.97037C9.17191 4.14876 9.26049 4.36852 9.25926 4.62963V7.96296Z" fill="#4F4F4F"/>
</svg>
