<svg width="24" height="24" viewBox="0 0 24 24" fill="none" xmlns="http://www.w3.org/2000/svg">
<path d="M15.75 1.20387e-07C16.9137 0.00263304 18.0637 0.251475 19.1244 0.730177C20.1851 1.20888 21.1325 1.9066 21.9044 2.77751C22.6762 3.64841 23.2551 4.67279 23.6029 5.78332C23.9506 6.89385 24.0595 8.0654 23.9223 9.22101C23.7851 10.3766 23.4049 11.4901 22.8068 12.4883C22.2086 13.4865 21.406 14.3469 20.4516 15.0128C19.4973 15.6788 18.4129 16.1353 17.2696 16.3523C16.1263 16.5693 14.95 16.5419 13.818 16.272L12.42 17.67C12.2092 17.881 11.9233 17.9997 11.625 18H10.5V19.125C10.4997 19.4233 10.381 19.7092 10.17 19.92L9.42 20.67C9.20922 20.881 8.92327 20.9997 8.625 21H7.5V22.125C7.49974 22.4233 7.38104 22.7092 7.17 22.92L6.42 23.67C6.20922 23.881 5.92327 23.9997 5.625 24H2.625C1.92881 24 1.26113 23.7234 0.768845 23.2312C0.276562 22.7389 0 22.0712 0 21.375L0 18.375C0 18.0765 0.1185 17.7915 0.33 17.58L7.728 10.182C7.43577 8.96884 7.42256 7.70519 7.68935 6.48618C7.95613 5.26718 8.49597 4.12457 9.26823 3.14438C10.0405 2.16418 11.025 1.37194 12.1478 0.827297C13.2705 0.28265 14.5021 -0.000213041 15.75 1.20387e-07ZM9.75 8.25C9.7485 8.8965 9.8535 9.54 10.0575 10.1535C10.1238 10.3518 10.1334 10.5646 10.0855 10.7681C10.0375 10.9716 9.93382 11.1577 9.786 11.3055L2.25 18.84V21.375C2.25 21.582 2.418 21.75 2.625 21.75H5.16L5.25 21.66V19.875C5.25 19.5766 5.36853 19.2905 5.5795 19.0795C5.79048 18.8685 6.07663 18.75 6.375 18.75H8.16L8.25 18.66V16.875C8.25 16.5766 8.36853 16.2905 8.5795 16.0795C8.79048 15.8685 9.07663 15.75 9.375 15.75H11.16L12.6945 14.2125C12.8425 14.0649 13.0287 13.9615 13.2321 13.9138C13.4356 13.8661 13.6484 13.8761 13.8465 13.9425C15.0501 14.3452 16.3504 14.3558 17.5605 13.9728C18.7705 13.5898 19.8279 12.833 20.5807 11.8111C21.3335 10.7893 21.7428 9.55505 21.7499 8.28587C21.757 7.0167 21.3614 5.77798 20.6201 4.7478C19.8787 3.71763 18.8298 2.94908 17.6241 2.55264C16.4184 2.15621 15.1181 2.15233 13.91 2.54154C12.702 2.93076 11.6485 3.69302 10.901 4.71875C10.1535 5.74447 9.75052 6.98081 9.75 8.25ZM16.5 9C16.1022 9 15.7206 8.84196 15.4393 8.56066C15.158 8.27936 15 7.89782 15 7.5C15 7.10218 15.158 6.72064 15.4393 6.43934C15.7206 6.15804 16.1022 6 16.5 6C16.8978 6 17.2794 6.15804 17.5607 6.43934C17.842 6.72064 18 7.10218 18 7.5C18 7.89782 17.842 8.27936 17.5607 8.56066C17.2794 8.84196 16.8978 9 16.5 9Z" fill="#4F8936"/>
</svg>
