<svg width="30" height="46" viewBox="0 0 30 46" fill="none" xmlns="http://www.w3.org/2000/svg">
<path d="M3.82812 0.0305862C5.23977 -0.0965394 8.63507 0.106051 10.9238 1.93195C11.9981 2.79041 14.3471 5.47696 14.6846 9.34699C14.7326 9.89787 15.0957 11.4435 16.166 13.2171C15.4958 12.858 13.9124 11.4776 12.9395 8.83039C12.3543 7.27137 10.7563 3.90699 9.04492 2.92023C9.90757 3.86873 11.2574 7.53485 11.5938 8.47004C12.61 11.2957 12.629 11.9072 14.9814 14.1712C15.3819 14.5566 16.2312 15.2789 17.2764 15.9759C17.6546 14.6055 18.488 12.7469 20.1406 10.7816C21.8129 9.07962 24.8045 4.83732 23.3926 1.48469C24.4773 2.27681 26.6487 4.60202 26.6572 7.56477C26.6352 8.55047 25.8663 12.0308 22.9609 13.8392C21.5672 14.7066 19.9835 14.7237 19.3818 15.4202C20.2241 13.7611 21.0347 13.3025 22.0361 12.5511C23.14 11.7227 24.9917 9.78092 24.6416 7.47395C24.6332 8.21526 24.0291 10.1079 21.6807 11.7474C20.5655 12.5586 18.5582 14.3348 17.5713 16.1683C18.0692 16.4862 18.6036 16.7923 19.1504 17.0491C18.6637 16.9971 18.0247 16.891 17.3057 16.7239C17.1515 17.0957 17.0466 17.4661 17.0078 17.8275C16.9934 17.5577 17.0196 17.1651 17.1123 16.6771C14.9396 16.1485 12.1215 15.0638 10.5576 13.1566C9.95111 12.5291 8.60846 10.5361 8.08984 7.58039C7.75115 5.65002 6.90514 1.32461 3.82812 0.0305862Z" fill="#D9D9D9"/>
<path d="M3.82812 0.0305862C5.23977 -0.0965394 8.63507 0.106051 10.9238 1.93195C11.9981 2.79041 14.3471 5.47696 14.6846 9.34699C14.7326 9.89787 15.0957 11.4435 16.166 13.2171C15.4958 12.858 13.9124 11.4776 12.9395 8.83039C12.3543 7.27137 10.7563 3.90699 9.04492 2.92023C9.90757 3.86873 11.2574 7.53485 11.5938 8.47004C12.61 11.2957 12.629 11.9072 14.9814 14.1712C15.3819 14.5566 16.2312 15.2789 17.2764 15.9759C17.6546 14.6055 18.488 12.7469 20.1406 10.7816C21.8129 9.07962 24.8045 4.83732 23.3926 1.48469C24.4773 2.27681 26.6487 4.60202 26.6572 7.56477C26.6352 8.55047 25.8663 12.0308 22.9609 13.8392C21.5672 14.7066 19.9835 14.7237 19.3818 15.4202C20.2241 13.7611 21.0347 13.3025 22.0361 12.5511C23.14 11.7227 24.9917 9.78092 24.6416 7.47395C24.6332 8.21526 24.0291 10.1079 21.6807 11.7474C20.5655 12.5586 18.5582 14.3348 17.5713 16.1683C18.0692 16.4862 18.6036 16.7923 19.1504 17.0491C18.6637 16.9971 18.0247 16.891 17.3057 16.7239C17.1515 17.0957 17.0466 17.4661 17.0078 17.8275C16.9934 17.5577 17.0196 17.1651 17.1123 16.6771C14.9396 16.1485 12.1215 15.0638 10.5576 13.1566C9.95111 12.5291 8.60846 10.5361 8.08984 7.58039C7.75115 5.65002 6.90514 1.32461 3.82812 0.0305862Z" fill="url(#paint0_linear_18_506)"/>
<ellipse cx="15" cy="30.8941" rx="15" ry="14.9999" fill="url(#paint1_linear_18_506)"/>
<g clip-path="url(#clip0_18_506)">
<rect x="2.26782" y="18.1618" width="25.5118" height="25.5117" rx="12.7558" fill="white"/>
<path d="M28.9264 28.6541C28.9323 28.7199 28.937 28.7857 28.9412 28.8515C28.9449 28.9058 28.9481 28.9651 28.9508 29.0217C28.9508 29.0358 28.9508 29.051 28.9508 29.0657C28.9508 29.1087 28.9545 29.1516 28.956 29.1946C28.9576 29.2376 28.956 29.2648 28.9592 29.3001C28.9624 29.3355 28.9592 29.3839 28.9592 29.4252C28.9592 29.4399 28.9592 29.4551 28.9592 29.4698C28.9592 29.5095 28.9592 29.5486 28.9592 29.5878V29.6688C28.9592 29.7232 28.9592 29.7776 28.9592 29.8287C28.9592 29.8798 28.9592 29.9423 28.9539 29.9989C28.9539 30.0304 28.9539 30.0625 28.9502 30.0946C28.9502 30.1164 28.9502 30.1376 28.9471 30.1599C28.9439 30.1822 28.9471 30.2142 28.9434 30.2387C28.9402 30.2849 28.9375 30.3312 28.9338 30.3779C28.9257 30.4994 28.9153 30.6205 28.9026 30.7412C28.8995 30.7746 28.8958 30.8077 28.8915 30.8407C28.8915 30.8554 28.8915 30.8701 28.8868 30.8859C28.8826 30.9228 28.8783 30.9604 28.8736 30.9979C28.8651 31.0648 28.8561 31.1322 28.8461 31.1991C28.8403 31.2437 28.8334 31.2883 28.8265 31.3318C28.8159 31.403 28.8038 31.4748 28.7911 31.5455C28.7816 31.5999 28.7721 31.6543 28.7615 31.7059C28.7615 31.7168 28.7578 31.7277 28.7551 31.7391C28.7456 31.7902 28.735 31.8413 28.7245 31.8924C28.7102 31.9599 28.6959 32.0279 28.6806 32.0953C28.6679 32.1497 28.6547 32.2068 28.6409 32.2617C28.6393 32.2705 28.6372 32.2792 28.6346 32.2878C28.6219 32.3422 28.6082 32.3938 28.5944 32.4466C28.5944 32.4564 28.5897 32.4651 28.5875 32.4749C28.5579 32.5865 28.5267 32.6978 28.494 32.8088C28.494 32.812 28.494 32.8158 28.4903 32.8196C28.4728 32.8795 28.4543 32.9387 28.4374 32.998C28.4205 33.0573 28.403 33.1068 28.3845 33.1612L28.3782 33.1818L28.3221 33.345C28.3042 33.3955 28.2862 33.4461 28.2693 33.4961C28.2603 33.5206 28.2513 33.5451 28.2418 33.569C28.228 33.6076 28.2132 33.6462 28.1979 33.6848C28.1957 33.6921 28.1931 33.6992 28.19 33.7061C28.1693 33.7604 28.1477 33.8148 28.126 33.8692C28.0985 33.9372 28.0699 34.0051 28.0414 34.072C28.0208 34.1193 28.0002 34.1667 27.979 34.214C27.9542 34.2684 27.9293 34.3265 27.9034 34.382V34.3853C27.8537 34.494 27.8021 34.601 27.7485 34.7061C27.7455 34.7114 27.7429 34.7168 27.7406 34.7224L27.6607 34.878C27.6593 34.8802 27.6581 34.8826 27.657 34.885L27.5746 35.0395C27.5743 35.0407 27.5743 35.042 27.5746 35.0433C27.5492 35.0895 27.5217 35.1363 27.4974 35.1819L27.4794 35.2146C27.4514 35.2635 27.4265 35.3119 27.3953 35.3603C27.3641 35.4087 27.3425 35.4479 27.3181 35.4908L27.3018 35.518C27.27 35.5724 27.2378 35.6224 27.2055 35.6746C27.1733 35.7268 27.14 35.778 27.1072 35.8291C27.0744 35.8802 27.0406 35.9313 27.0062 35.9819C26.9718 36.0325 26.938 36.083 26.9036 36.1331C26.8693 36.1831 26.8339 36.2331 26.7979 36.2826C26.762 36.3321 26.735 36.3702 26.7038 36.4131L26.6906 36.4305C26.6187 36.5284 26.5441 36.6252 26.4691 36.7209C26.394 36.8166 26.3168 36.9107 26.2391 37.0037C26.1508 37.1092 26.0614 37.212 25.9705 37.3137L25.878 37.4148L25.7543 37.5475C25.676 37.6302 25.5957 37.7107 25.5158 37.7917C25.436 37.8727 25.354 37.9516 25.271 38.0293L25.1013 38.1827C25.0569 38.2229 25.0114 38.2632 24.9654 38.3029C24.8856 38.3741 24.8068 38.4432 24.7222 38.5111L24.6842 38.5427L24.5488 38.6515L24.4061 38.7635C24.4043 38.7644 24.4027 38.7657 24.4013 38.7673C24.3072 38.8398 24.2121 38.911 24.1158 38.981L24.1105 38.9848C21.3809 40.8582 18.8585 41.1274 16.5803 40.675C26.8825 36.2364 25.3821 20.548 14.0955 18.4875L14.0315 18.4772L14.068 18.4647C14.6042 18.2796 15.1533 18.1367 15.7106 18.0373C15.8692 18.0079 16.0278 17.9829 16.1865 17.9617C17.3941 17.7941 18.6203 17.8309 19.8165 18.0704C19.8931 18.0857 19.9698 18.102 20.0459 18.1194C21.8419 18.5237 23.5152 19.3714 24.9216 20.5894C25.0597 20.7083 25.1953 20.831 25.3281 20.9575C25.362 20.9891 25.3947 21.0212 25.4275 21.0532C25.4931 21.1169 25.5581 21.1816 25.6216 21.2468C25.685 21.3121 25.7495 21.379 25.8119 21.4459C25.8743 21.5128 25.9361 21.5802 25.9975 21.6487C26.1032 21.7656 26.2042 21.8853 26.303 22.0071C26.3374 22.049 26.3718 22.0914 26.4051 22.1332C26.4576 22.1985 26.5089 22.2641 26.5589 22.3301C26.6039 22.3888 26.6478 22.4481 26.6916 22.5074C27.9688 24.2464 28.7381 26.3235 28.9095 28.4958C28.918 28.5491 28.9222 28.6013 28.9264 28.6541Z" fill="url(#paint2_linear_18_506)"/>
<path d="M9.50788 37.568C4.01711 34.8623 -3.069 37.0598 -5.76367 43.0392C-2.35479 34.8353 5.88769 35.6156 9.50788 37.568Z" fill="#79B2EB"/>
<path d="M29.7119 29.7812C30.3784 37.6755 24.5492 43.6677 17.8629 44.448C13.5968 44.6317 10.003 41.8965 6.13901 40.4836C5.78707 40.3476 5.42843 40.2306 5.06457 40.1329C2.27185 39.283 -0.625353 39.5596 -3.15579 41.0466C-4.10112 41.541 -4.96507 42.1839 -5.71631 42.9518C-3.0951 36.8828 4.05714 34.621 9.50642 37.3891C14.0485 40.0762 18.7094 42.6211 24.0943 38.902L24.0996 38.8982C24.1956 38.8291 24.2906 38.7583 24.3845 38.6859C24.3859 38.6843 24.3875 38.6831 24.3893 38.6821C25.6302 37.7269 26.6723 36.5275 27.4543 35.1543L27.4723 35.1219C27.4981 35.0765 27.525 35.03 27.5493 34.9841C27.549 34.9828 27.549 34.9815 27.5493 34.9803L27.6316 34.8268C27.6327 34.8244 27.6339 34.822 27.6353 34.8198C27.7198 34.6588 27.8005 34.4956 27.8776 34.3303V34.327C28.1107 33.8258 28.3075 33.3076 28.4665 32.7768C28.4665 32.773 28.4691 32.7693 28.4702 32.766C28.5212 32.5949 28.568 32.4224 28.6106 32.2484C28.6132 32.2399 28.6153 32.2312 28.6169 32.2224C28.7274 31.7727 28.8093 31.316 28.8623 30.8554C28.8623 30.8397 28.866 30.8252 28.867 30.8106C28.9139 30.3981 28.9372 29.9831 28.9367 29.5678C28.9367 29.3949 28.933 29.2215 28.9246 29.0491C28.9246 29.0345 28.9246 29.0194 28.9246 29.0053C28.9161 28.8313 28.9034 28.6568 28.8866 28.4834C28.4047 21.9794 22.461 17.1126 16.1869 18.0145C16.0963 18.0261 16.0123 18.0688 15.9483 18.1355C14.752 19.355 15.2533 21.5093 16.8428 22.0556C15.4708 23.3686 13.1419 22.4106 12.9905 20.4681C12.9653 20.1506 13.0029 19.8311 13.1009 19.5288C13.1989 19.2264 13.3553 18.9474 13.5609 18.7082C13.5624 18.7068 13.5633 18.7049 13.5635 18.7029C13.5637 18.7008 13.5632 18.6987 13.5621 18.697C13.5609 18.6953 13.5592 18.6941 13.5573 18.6936C13.5553 18.6931 13.5532 18.6933 13.5514 18.6942C11.135 19.6268 10.8648 23.1389 13.2211 24.413C13.2225 24.4137 13.2238 24.4149 13.2246 24.4162C13.2255 24.4176 13.2259 24.4192 13.2259 24.4209C13.2259 24.4225 13.2255 24.4241 13.2246 24.4255C13.2238 24.4269 13.2225 24.428 13.2211 24.4287C12.9323 24.5501 12.6271 24.6253 12.316 24.6519C8.55018 24.8015 7.73432 19.7408 11.1783 18.4608L11.3556 18.3905C11.7779 18.2093 12.2093 18.0511 12.648 17.9167L14.2311 17.5384C15.2125 17.3651 16.2098 17.3043 17.2043 17.3574C23.7191 17.7102 29.1451 22.9379 29.7119 29.7812Z" fill="url(#paint3_linear_18_506)"/>
<path d="M29.7119 29.7812C30.3784 37.6755 24.5492 43.6677 17.8629 44.448C13.5968 44.6317 10.003 41.8965 6.13901 40.4836C5.78707 40.3476 5.42843 40.2306 5.06457 40.1329C2.27185 39.283 -0.625353 39.5596 -3.15579 41.0466C-4.10112 41.541 -4.96507 42.1839 -5.71631 42.9518C-3.0951 36.8828 4.05714 34.621 9.50642 37.3891C14.0485 40.0762 18.7094 42.6211 24.0943 38.902L24.0996 38.8982C24.1956 38.8291 24.2906 38.7583 24.3845 38.6859C24.3859 38.6843 24.3875 38.6831 24.3893 38.6821C25.6302 37.7269 26.6723 36.5275 27.4543 35.1543L27.4723 35.1219C27.4981 35.0765 27.525 35.03 27.5493 34.9841C27.549 34.9828 27.549 34.9815 27.5493 34.9803L27.6316 34.8268C27.6327 34.8244 27.6339 34.822 27.6353 34.8198C27.7198 34.6588 27.8005 34.4956 27.8776 34.3303V34.327C28.1107 33.8258 28.3075 33.3076 28.4665 32.7768C28.4665 32.773 28.4691 32.7693 28.4702 32.766C28.5212 32.5949 28.568 32.4224 28.6106 32.2484C28.6132 32.2399 28.6153 32.2312 28.6169 32.2224C28.7274 31.7727 28.8093 31.316 28.8623 30.8554C28.8623 30.8397 28.866 30.8252 28.867 30.8106C28.9139 30.3981 28.9372 29.9831 28.9367 29.5678C28.9367 29.3949 28.933 29.2215 28.9246 29.0491C28.9246 29.0345 28.9246 29.0194 28.9246 29.0053C28.9161 28.8313 28.9034 28.6568 28.8866 28.4834C28.4047 21.9794 22.461 17.1126 16.1869 18.0145C16.0963 18.0261 16.0123 18.0688 15.9483 18.1355C14.752 19.355 15.2533 21.5093 16.8428 22.0556C15.4708 23.3686 13.1419 22.4106 12.9905 20.4681C12.9653 20.1506 13.0029 19.8311 13.1009 19.5288C13.1989 19.2264 13.3553 18.9474 13.5609 18.7082C13.5624 18.7068 13.5633 18.7049 13.5635 18.7029C13.5637 18.7008 13.5632 18.6987 13.5621 18.697C13.5609 18.6953 13.5592 18.6941 13.5573 18.6936C13.5553 18.6931 13.5532 18.6933 13.5514 18.6942C11.135 19.6268 10.8648 23.1389 13.2211 24.413C13.2225 24.4137 13.2238 24.4149 13.2246 24.4162C13.2255 24.4176 13.2259 24.4192 13.2259 24.4209C13.2259 24.4225 13.2255 24.4241 13.2246 24.4255C13.2238 24.4269 13.2225 24.428 13.2211 24.4287C12.9323 24.5501 12.6271 24.6253 12.316 24.6519C8.55018 24.8015 7.73432 19.7408 11.1783 18.4608L11.3556 18.3905C11.7779 18.2093 12.2093 18.0511 12.648 17.9167L14.2311 17.5384C15.2125 17.3651 16.2098 17.3043 17.2043 17.3574C23.7191 17.7102 29.1451 22.9379 29.7119 29.7812Z" fill="url(#paint4_linear_18_506)"/>
<path d="M-5.21324 44.5105C-5.23026 44.5232 -5.25146 44.5292 -5.27265 44.5271C-5.29384 44.525 -5.31348 44.515 -5.32768 44.4992C-5.34188 44.4833 -5.34962 44.4627 -5.34936 44.4414C-5.3491 44.4201 -5.34087 44.3997 -5.32629 44.3842C-1.95756 40.8137 1.83431 40.4191 6.47035 42.4608C9.30448 43.6573 12.1613 45.4069 15.3008 45.4006C15.3223 45.4003 15.343 45.4082 15.3589 45.4227C15.3748 45.4371 15.3847 45.4571 15.3865 45.4785C15.3883 45.4999 15.3819 45.5212 15.3687 45.5381C15.3554 45.555 15.3363 45.5663 15.3151 45.5696C10.6484 46.3826 6.47088 42.6552 1.95 42.1439C-0.78851 41.8084 -3.11023 42.9252 -5.21324 44.5105Z" fill="url(#paint5_linear_18_506)"/>
<path d="M-5.21324 44.5105C-5.23026 44.5232 -5.25146 44.5292 -5.27265 44.5271C-5.29384 44.525 -5.31348 44.515 -5.32768 44.4992C-5.34188 44.4833 -5.34962 44.4627 -5.34936 44.4414C-5.3491 44.4201 -5.34087 44.3997 -5.32629 44.3842C-1.95756 40.8137 1.83431 40.4191 6.47035 42.4608C9.30448 43.6573 12.1613 45.4069 15.3008 45.4006C15.3223 45.4003 15.343 45.4082 15.3589 45.4227C15.3748 45.4371 15.3847 45.4571 15.3865 45.4785C15.3883 45.4999 15.3819 45.5212 15.3687 45.5381C15.3554 45.555 15.3363 45.5663 15.3151 45.5696C10.6484 46.3826 6.47088 42.6552 1.95 42.1439C-0.78851 41.8084 -3.11023 42.9252 -5.21324 44.5105Z" fill="url(#paint6_linear_18_506)"/>
<path d="M19.0094 44.4666C17.9846 44.7117 16.9011 44.745 15.8398 44.6198C14.7786 44.4946 13.7347 44.2146 12.7305 43.8659C10.7199 43.1634 8.84565 42.2051 6.91643 41.5115C6.43519 41.3366 5.94918 41.1819 5.45948 41.0519C4.97302 40.9194 4.4791 40.8161 3.98035 40.7423C3.4832 40.6691 2.98153 40.6308 2.47903 40.6277C2.35383 40.6277 2.2281 40.6319 2.10237 40.634C1.97665 40.6362 1.85145 40.6483 1.72572 40.6541C1.6 40.6599 1.47533 40.6763 1.3496 40.6874C1.22387 40.6985 1.10026 40.7196 0.974532 40.7355C-0.024941 40.8813 -1.00698 41.1829 -1.95785 41.5807C-2.43329 41.7809 -2.89763 42.0112 -3.35933 42.2542L-3.70587 42.4423C-3.82051 42.5046 -3.93197 42.5722 -4.04608 42.6367C-4.27693 42.7619 -4.4951 42.9066 -4.72437 43.0382C-4.33548 42.681 -3.92778 42.3449 -3.50302 42.0313C-3.0747 41.7163 -2.62825 41.4266 -2.16599 41.1639C-2.15384 41.157 -2.14169 41.1496 -2.12848 41.1428C-1.20111 40.6186 -0.201683 40.2336 0.837712 40.0001C1.90675 39.7702 3.00647 39.7186 4.09234 39.8475C4.63225 39.9103 5.16746 40.0085 5.69456 40.1412C5.82557 40.1739 5.95587 40.2092 6.08547 40.2468L6.10027 40.2505C6.46371 40.353 6.82187 40.4692 7.17581 40.5934L7.23762 40.615C7.74158 40.7968 8.2355 40.998 8.72256 41.2067C9.20962 41.4153 9.68823 41.6377 10.1637 41.8612L11.5815 42.53C11.8177 42.6404 12.0538 42.7476 12.2899 42.8543C12.5261 42.961 12.7622 43.0656 12.9999 43.1671C13.9508 43.5722 14.918 43.9235 15.9201 44.1586C16.4225 44.2777 16.9322 44.364 17.4458 44.4169C17.933 44.4655 18.4228 44.4832 18.9122 44.4697C18.9444 44.4687 18.9772 44.4682 19.0094 44.4666Z" fill="url(#paint7_linear_18_506)"/>
<path d="M19.0094 44.4666C17.9846 44.7117 16.9011 44.745 15.8398 44.6198C14.7786 44.4946 13.7347 44.2146 12.7305 43.8659C10.7199 43.1634 8.84565 42.2051 6.91643 41.5115C6.43519 41.3366 5.94918 41.1819 5.45948 41.0519C4.97302 40.9194 4.4791 40.8161 3.98035 40.7423C3.4832 40.6691 2.98153 40.6308 2.47903 40.6277C2.35383 40.6277 2.2281 40.6319 2.10237 40.634C1.97665 40.6362 1.85145 40.6483 1.72572 40.6541C1.6 40.6599 1.47533 40.6763 1.3496 40.6874C1.22387 40.6985 1.10026 40.7196 0.974532 40.7355C-0.024941 40.8813 -1.00698 41.1829 -1.95785 41.5807C-2.43329 41.7809 -2.89763 42.0112 -3.35933 42.2542L-3.70587 42.4423C-3.82051 42.5046 -3.93197 42.5722 -4.04608 42.6367C-4.27693 42.7619 -4.4951 42.9066 -4.72437 43.0382C-4.33548 42.681 -3.92778 42.3449 -3.50302 42.0313C-3.0747 41.7163 -2.62825 41.4266 -2.16599 41.1639C-2.15384 41.157 -2.14169 41.1496 -2.12848 41.1428C-1.20111 40.6186 -0.201683 40.2336 0.837712 40.0001C1.90675 39.7702 3.00647 39.7186 4.09234 39.8475C4.63225 39.9103 5.16746 40.0085 5.69456 40.1412C5.82557 40.1739 5.95587 40.2092 6.08547 40.2468L6.10027 40.2505C6.46371 40.353 6.82187 40.4692 7.17581 40.5934L7.23762 40.615C7.74158 40.7968 8.2355 40.998 8.72256 41.2067C9.20962 41.4153 9.68823 41.6377 10.1637 41.8612L11.5815 42.53C11.8177 42.6404 12.0538 42.7476 12.2899 42.8543C12.5261 42.961 12.7622 43.0656 12.9999 43.1671C13.9508 43.5722 14.918 43.9235 15.9201 44.1586C16.4225 44.2777 16.9322 44.364 17.4458 44.4169C17.933 44.4655 18.4228 44.4832 18.9122 44.4697C18.9444 44.4687 18.9772 44.4682 19.0094 44.4666Z" fill="url(#paint8_linear_18_506)"/>
<path d="M11.7316 34.0842C11.5888 34.4118 11.4141 34.7246 11.2099 35.0179C11.1807 34.8185 11.1447 34.5539 11.0918 34.2505C10.9907 33.6109 10.8186 32.9846 10.5787 32.3832C10.3839 31.8863 10.09 31.4342 9.71492 31.0545C10.0109 31.5603 10.2681 32.0879 10.4842 32.6327C10.6963 33.1508 10.8651 33.6856 10.9888 34.2316C11.0481 34.4961 11.0926 34.7636 11.1221 35.033C10.6688 34.8337 10.2593 34.547 9.91716 34.1891C8.40512 32.5703 9.26982 30.1709 9.26982 30.1709C9.26982 30.1709 9.43236 30.2219 9.67806 30.3287C10.1627 30.5367 10.613 30.8171 11.0134 31.1603C11.3526 31.4475 11.6237 31.8064 11.8072 32.2112C12.0954 32.8755 11.9565 33.5522 11.7316 34.0842Z" fill="#639900"/>
<g style="mix-blend-mode:multiply">
<path d="M11.807 32.2112C11.6241 31.8066 11.3536 31.4477 11.0151 31.1603L10.5785 32.3832C10.8204 32.986 10.9941 33.6139 11.0964 34.2553C11.1493 34.5586 11.1852 34.8223 11.2145 35.0226C11.4173 34.7276 11.5904 34.4133 11.7314 34.0842C11.9563 33.5522 12.0953 32.8755 11.807 32.2112ZM10.484 32.6327L9.91699 34.1891C10.2592 34.5455 10.6683 34.831 11.1209 35.0292C11.0915 34.7598 11.047 34.4923 10.9877 34.2279C10.8641 33.6832 10.6956 33.1496 10.484 32.6327Z" fill="#D1D3D4"/>
</g>
<g style="mix-blend-mode:multiply">
<path d="M9.27267 30.1718C9.27267 30.1718 8.03186 33.6117 11.1202 35.0292C11.091 34.7598 11.0468 34.4923 10.9879 34.2278C10.7592 34.1654 10.5107 34.002 10.2423 33.6986C9.12242 32.4304 9.42482 31.0157 9.68092 30.3258C9.54757 30.2675 9.41131 30.2161 9.27267 30.1718Z" fill="#D1D3D4"/>
</g>
<path d="M19.0942 33.865L18.9052 33.3566L18.8381 33.418C18.5868 33.6486 18.3656 33.847 18.2059 34.0171C17.5444 34.7023 17.6332 35.4346 17.7334 35.6303C17.7382 35.6402 17.7439 35.6497 17.7504 35.6586L17.982 35.9506H19.8465L19.0942 33.865ZM16.2138 25.907H13.3788L9.74609 35.9506H12.3071L14.7831 28.6107L15.6336 31.1424C16.1533 30.5158 16.8366 29.9734 17.5132 29.5066L16.2138 25.907Z" fill="#F77B1D"/>
<path d="M19.0942 33.865L18.9052 33.3566L18.8381 33.418C18.5868 33.6486 18.3656 33.847 18.2059 34.0171C17.5444 34.7023 17.6332 35.4346 17.7334 35.6303C17.7382 35.6402 17.7439 35.6497 17.7504 35.6586L17.982 35.9506H19.8465L19.0942 33.865ZM16.2138 25.907H13.3788L9.74609 35.9506H12.3071L14.7831 28.6107L15.6336 31.1424C16.1533 30.5158 16.8366 29.9734 17.5132 29.5066L16.2138 25.907Z" fill="url(#paint9_linear_18_506)"/>
<g style="mix-blend-mode:multiply">
<path d="M18.9101 33.3565L18.843 33.4179C18.5916 33.6485 18.3705 33.847 18.2108 34.0171C17.5493 34.7022 17.6381 35.4346 17.7383 35.6302C17.8453 35.2297 18.0558 34.8643 18.3488 34.5709C18.5444 34.3686 18.8052 34.1324 19.0972 33.8649L18.9101 33.3565Z" fill="#D1D3D4"/>
</g>
<path d="M20.7134 25.8427C20.7134 25.8427 20.8684 27.0608 20.1369 28.1108C19.9047 28.4436 19.6077 28.7261 19.2637 28.9414C17.6572 29.9592 15.0499 31.4145 15.0896 33.4586C15.0919 33.5854 15.1042 33.7118 15.1264 33.8366C15.5243 36.0829 17.3812 35.9487 17.3812 35.9487C17.1469 35.6529 16.99 34.5955 17.8717 33.6863C18.7534 32.7772 20.9411 31.1849 21.3957 29.0813C21.8502 26.9777 20.7134 25.8427 20.7134 25.8427ZM17.3831 35.9487C16.3436 35.4857 15.9467 34.655 16.044 33.8007C16.1311 33.1882 16.4119 32.6196 16.8454 32.1781C17.8443 31.114 19.5047 30.1246 19.586 30.0925C19.4981 30.1529 16.9286 31.87 16.4731 33.5011C16.4532 33.5729 16.4362 33.6438 16.4239 33.7128C16.131 35.1889 17.3198 35.9071 17.3831 35.9487Z" fill="#639900"/>
<g style="mix-blend-mode:multiply">
<path d="M21.3957 29.0832C20.9412 31.1868 18.7497 32.7782 17.8717 33.6882C16.9938 34.5983 17.1469 35.6548 17.3813 35.9506C17.3813 35.9506 15.5243 36.0848 15.1265 33.8385C15.1042 33.7136 15.0919 33.5873 15.0896 33.4605C15.2111 33.5851 15.3592 33.6807 15.5229 33.7399C15.6865 33.7992 15.8615 33.8206 16.0346 33.8026C15.9401 34.6531 16.338 35.4875 17.3737 35.9506C17.3151 35.909 16.1263 35.1946 16.4145 33.7147C16.583 33.6526 16.7443 33.5724 16.8955 33.4756C18.3452 32.5693 20.6331 29.5887 20.1322 28.1126C20.8637 27.0627 20.7087 25.8446 20.7087 25.8446C20.7087 25.8446 21.8512 26.9796 21.3957 29.0832Z" fill="#D1D3D4"/>
</g>
</g>
<defs>
<linearGradient id="paint0_linear_18_506" x1="11.1833" y1="7.103" x2="25.3071" y2="16.3746" gradientUnits="userSpaceOnUse">
<stop stop-color="#D7F40E"/>
<stop offset="1" stop-color="#6DC50F"/>
</linearGradient>
<linearGradient id="paint1_linear_18_506" x1="0.664659" y1="12.5021" x2="24.458" y2="48.5797" gradientUnits="userSpaceOnUse">
<stop stop-color="#D7F40E"/>
<stop offset="1" stop-color="#6DC50F"/>
</linearGradient>
<linearGradient id="paint2_linear_18_506" x1="11.9452" y1="14.5101" x2="32.4253" y2="25.687" gradientUnits="userSpaceOnUse">
<stop stop-color="#43C9D4"/>
<stop offset="1" stop-color="#0049B2" stop-opacity="0.88"/>
</linearGradient>
<linearGradient id="paint3_linear_18_506" x1="-6.54501" y1="32.9286" x2="29.7269" y2="29.9227" gradientUnits="userSpaceOnUse">
<stop offset="0.01" stop-color="#3866BD"/>
<stop offset="0.02" stop-color="#406EC1"/>
<stop offset="0.06" stop-color="#5B89CF"/>
<stop offset="0.11" stop-color="#719FDA"/>
<stop offset="0.17" stop-color="#80AEE1"/>
<stop offset="0.23" stop-color="#88B6E6"/>
<stop offset="0.33" stop-color="#8BB9E7"/>
<stop offset="1" stop-color="#CBE6F5"/>
</linearGradient>
<linearGradient id="paint4_linear_18_506" x1="-10.6745" y1="13.3922" x2="17.8967" y2="44.8327" gradientUnits="userSpaceOnUse">
<stop stop-color="#43C9D4"/>
<stop offset="1" stop-color="#0049B2" stop-opacity="0.88"/>
</linearGradient>
<linearGradient id="paint5_linear_18_506" x1="-5.77985" y1="44.5941" x2="15.605" y2="42.7795" gradientUnits="userSpaceOnUse">
<stop offset="0.01" stop-color="#3866BD"/>
<stop offset="0.02" stop-color="#406EC1"/>
<stop offset="0.06" stop-color="#5B89CF"/>
<stop offset="0.11" stop-color="#719FDA"/>
<stop offset="0.17" stop-color="#80AEE1"/>
<stop offset="0.23" stop-color="#88B6E6"/>
<stop offset="0.33" stop-color="#8BB9E7"/>
<stop offset="1" stop-color="#CBE6F5"/>
</linearGradient>
<linearGradient id="paint6_linear_18_506" x1="-8.24716" y1="40.5786" x2="-5.98311" y2="49.4363" gradientUnits="userSpaceOnUse">
<stop stop-color="#43C9D4"/>
<stop offset="1" stop-color="#0049B2" stop-opacity="0.88"/>
</linearGradient>
<linearGradient id="paint7_linear_18_506" x1="-4.68417" y1="43.4775" x2="18.7604" y2="41.4882" gradientUnits="userSpaceOnUse">
<stop stop-color="#345C97"/>
<stop offset="0.49" stop-color="#8BB9E7"/>
<stop offset="1" stop-color="#345C97"/>
</linearGradient>
<linearGradient id="paint8_linear_18_506" x1="-8.04107" y1="39.0634" x2="-5.62795" y2="48.8687" gradientUnits="userSpaceOnUse">
<stop stop-color="#43C9D4"/>
<stop offset="1" stop-color="#0049B2" stop-opacity="0.88"/>
</linearGradient>
<linearGradient id="paint9_linear_18_506" x1="9.96987" y1="24.7714" x2="17.9179" y2="36.8909" gradientUnits="userSpaceOnUse">
<stop stop-color="#D7F40E"/>
<stop offset="0.0001" stop-color="#D7F40E"/>
<stop offset="1" stop-color="#6DC50F"/>
</linearGradient>
<clipPath id="clip0_18_506">
<rect x="2.26782" y="18.1618" width="25.5118" height="25.5117" rx="12.7558" fill="white"/>
</clipPath>
</defs>
</svg>
