<svg width="17" height="16" viewBox="0 0 17 16" fill="none" xmlns="http://www.w3.org/2000/svg">
<path d="M10.1667 4.33333V2.66667C10.1667 2.22464 9.99107 1.80072 9.67851 1.48816C9.36595 1.17559 8.94203 1 8.5 1H2.66667C2.22464 1 1.80072 1.17559 1.48816 1.48816C1.17559 1.80072 1 2.22464 1 2.66667V12.6667C1 13.1087 1.17559 13.5326 1.48816 13.8452C1.80072 14.1577 2.22464 14.3333 2.66667 14.3333H8.5C8.94203 14.3333 9.36595 14.1577 9.67851 13.8452C9.99107 13.5326 10.1667 13.1087 10.1667 12.6667V11" stroke="#4F4F4F" stroke-width="2" stroke-linecap="round" stroke-linejoin="round"/>
<path d="M6 7.66669H16M16 7.66669L13.5 5.16669M16 7.66669L13.5 10.1667" stroke="#4F4F4F" stroke-width="2" stroke-linecap="round" stroke-linejoin="round"/>
</svg>
