<svg width="17" height="19" viewBox="0 0 17 19" fill="none" xmlns="http://www.w3.org/2000/svg">
<path fill-rule="evenodd" clip-rule="evenodd" d="M8.33339 0C6.76853 0 5.27945 0.663451 4.18963 1.82587C3.10228 2.9857 2.50006 4.54828 2.50006 6.16667C2.50006 9.16372 1.8988 11.0308 1.34144 12.1207C1.06196 12.6672 0.789847 13.0257 0.600973 13.2383C0.506323 13.3449 0.431969 13.4155 0.387214 13.4553C0.364821 13.4752 0.349794 13.4874 0.343294 13.4925L0.340828 13.4945C0.0522565 13.7059 -0.0695323 14.0785 0.0395361 14.4201C0.149816 14.7655 0.470796 15 0.833392 15H15.8334C16.196 15 16.517 14.7655 16.6273 14.4201C16.7363 14.0785 16.6145 13.7059 16.326 13.4945L16.3235 13.4925C16.317 13.4874 16.302 13.4752 16.2796 13.4553C16.2348 13.4155 16.1605 13.3449 16.0658 13.2383C15.8769 13.0257 15.6048 12.6672 15.3253 12.1207C14.768 11.0308 14.1667 9.16372 14.1667 6.16667C14.1667 4.54828 13.5645 2.98572 12.4772 1.82588C11.3876 0.664711 9.89764 0 8.33339 0ZM0.340828 13.4945L0.343294 13.4925ZM0.343294 13.4925L0.340076 13.4951ZM13.8414 12.8795C13.9247 13.0422 14.0083 13.1933 14.0913 13.3333H2.57553C2.65848 13.1933 2.74213 13.0422 2.82534 12.8795C3.51799 11.525 4.16673 9.39211 4.16673 6.16667C4.16673 4.95673 4.61785 3.80596 5.40549 2.9658C6.19233 2.12655 7.24659 1.66667 8.33339 1.66667C9.41903 1.66667 10.4742 2.12713 11.2613 2.96578L12.5515 7.69252C12.7179 10.0827 13.2645 11.7512 13.8414 12.8795ZM12.5515 7.69252C12.5182 7.21353 12.5001 6.70508 12.5001 6.16667C12.5001 4.95685 12.0488 3.80592 11.2613 2.96578L12.5515 7.69252Z" fill="#4F4F4F"/>
<path d="M7.61292 16.2491C7.38233 15.8508 6.87251 15.7149 6.47421 15.9455C6.0759 16.1761 5.93994 16.6859 6.17053 17.0842C6.39008 17.4634 6.70547 17.7783 7.08509 17.9971C7.46471 18.216 7.8952 18.3312 8.33339 18.3312C8.77159 18.3312 9.20208 18.216 9.58169 17.9971C9.96131 17.7783 10.2767 17.4634 10.4963 17.0842C10.7268 16.6859 10.5909 16.1761 10.1926 15.9455C9.79428 15.7149 9.28446 15.8508 9.05387 16.2491C8.98073 16.3755 8.87567 16.4803 8.74922 16.5533C8.62276 16.6262 8.47936 16.6645 8.33339 16.6645C8.18743 16.6645 8.04402 16.6262 7.91757 16.5533C7.79112 16.4803 7.68605 16.3755 7.61292 16.2491Z" fill="#4F4F4F"/>
</svg>
