<svg width="24" height="24" viewBox="0 0 24 24" fill="none" xmlns="http://www.w3.org/2000/svg">
<path d="M11.9963 2.5C13.1724 2.49964 14.3177 2.87629 15.264 3.57467C16.2103 4.27305 16.9078 5.25638 17.2541 6.38032C17.6005 7.50427 17.5774 8.70964 17.1883 9.81952C16.7993 10.9294 16.0647 11.8853 15.0923 12.547C16.78 13.166 18.2438 14.2759 19.2953 15.7339C20.3467 17.1919 20.9378 18.9312 20.9923 20.728C20.9974 20.8277 20.9826 20.9275 20.9486 21.0214C20.9146 21.1153 20.8623 21.2015 20.7945 21.2749C20.7268 21.3483 20.6451 21.4074 20.5542 21.4488C20.4634 21.4902 20.3651 21.513 20.2653 21.516C20.1655 21.5189 20.0661 21.5019 19.973 21.4659C19.8798 21.4299 19.7948 21.3756 19.7229 21.3063C19.651 21.237 19.5936 21.1541 19.5542 21.0623C19.5148 20.9706 19.4941 20.8719 19.4933 20.772C19.4338 18.8235 18.6179 16.9747 17.2185 15.6174C15.8191 14.2602 13.9463 13.5011 11.9968 13.5011C10.0474 13.5011 8.17453 14.2602 6.77517 15.6174C5.3758 16.9747 4.55989 18.8235 4.50034 20.772C4.49437 20.9709 4.40963 21.1593 4.26476 21.2957C4.11989 21.4322 3.92675 21.5055 3.72784 21.4995C3.52893 21.4935 3.34053 21.4088 3.2041 21.2639C3.06767 21.119 2.99437 20.9259 3.00034 20.727C3.05509 18.9304 3.64623 17.1913 4.6977 15.7335C5.74916 14.2757 7.21283 13.1659 8.90034 12.547C7.92802 11.8853 7.19342 10.9294 6.80434 9.81952C6.41526 8.70964 6.3922 7.50427 6.73855 6.38032C7.08489 5.25638 7.7824 4.27305 8.7287 3.57467C9.67499 2.87629 10.8202 2.49964 11.9963 2.5ZM7.99634 8C7.99634 9.06087 8.41777 10.0783 9.16791 10.8284C9.91806 11.5786 10.9355 12 11.9963 12C13.0572 12 14.0746 11.5786 14.8248 10.8284C15.5749 10.0783 15.9963 9.06087 15.9963 8C15.9963 6.93913 15.5749 5.92172 14.8248 5.17157C14.0746 4.42143 13.0572 4 11.9963 4C10.9355 4 9.91806 4.42143 9.16791 5.17157C8.41777 5.92172 7.99634 6.93913 7.99634 8Z" fill="white"/>
</svg>
