<svg width="21" height="21" viewBox="0 0 21 21" fill="none" xmlns="http://www.w3.org/2000/svg">
<path d="M6.75 10.5V6.75H7.5C8.29535 6.74901 9.05783 6.43262 9.62022 5.87022C10.1826 5.30783 10.499 4.54534 10.5 3.75V1.5H8.25C7.48202 1.50141 6.74413 1.79877 6.18975 2.33025C5.80156 1.62492 5.23125 1.03665 4.53829 0.626784C3.84533 0.216918 3.0551 0.000466636 2.25 0H0V2.25C0.00138946 3.44305 0.475941 4.58683 1.31955 5.43045C2.16317 6.27406 3.30695 6.74861 4.5 6.75H5.25V10.5H0V12H10.5V10.5H6.75ZM8.25 3H9V3.75C9 4.14782 8.84196 4.52936 8.56066 4.81066C8.27936 5.09196 7.89782 5.25 7.5 5.25H6.75V4.5C6.75 4.10218 6.90804 3.72064 7.18934 3.43934C7.47064 3.15804 7.85218 3 8.25 3ZM4.5 5.25C3.70466 5.24901 2.94217 4.93262 2.37978 4.37022C1.81738 3.80783 1.50099 3.04534 1.5 2.25V1.5H2.25C3.04534 1.50099 3.80783 1.81738 4.37022 2.37978C4.93262 2.94217 5.24901 3.70466 5.25 4.5V5.25H4.5ZM0 14.25H10.5V15.75H0V14.25ZM0 18H10.5V19.5H0V18ZM17.25 21C16.4636 21.0024 15.6965 20.7569 15.0576 20.2983C14.4188 19.8396 13.9408 19.1913 13.6917 18.4454C13.4425 17.6995 13.4348 16.8941 13.6697 16.1436C13.9045 15.3931 14.3701 14.7357 15 14.265V9.75C15 9.15326 15.2371 8.58097 15.659 8.15901C16.081 7.73705 16.6533 7.5 17.25 7.5C17.8467 7.5 18.419 7.73705 18.841 8.15901C19.2629 8.58097 19.5 9.15326 19.5 9.75V14.265C20.1299 14.7357 20.5954 15.3931 20.8303 16.1436C21.0652 16.8941 21.0575 17.6995 20.8083 18.4454C20.5592 19.1913 20.0812 19.8396 19.4424 20.2983C18.8035 20.7569 18.0364 21.0024 17.25 21ZM17.25 9C17.0511 9 16.8603 9.07902 16.7197 9.21967C16.579 9.36032 16.5 9.55109 16.5 9.75V15.0975L16.1273 15.315C15.7852 15.5093 15.5008 15.7907 15.3028 16.1305C15.1048 16.4704 15.0003 16.8567 15 17.25C15 17.8467 15.2371 18.419 15.659 18.841C16.081 19.2629 16.6533 19.5 17.25 19.5C17.8467 19.5 18.419 19.2629 18.841 18.841C19.2629 18.419 19.5 17.8467 19.5 17.25C19.4998 16.8565 19.3954 16.4701 19.1974 16.1301C18.9994 15.7901 18.7149 15.5086 18.3727 15.3143L18 15.0975V9.75C18 9.55109 17.921 9.36032 17.7803 9.21967C17.6397 9.07902 17.4489 9 17.25 9Z" fill="#467A30"/>
</svg>
