<svg width="15" height="17" viewBox="0 0 15 17" fill="none" xmlns="http://www.w3.org/2000/svg">
<path d="M0.833333 8.33333C0.61232 8.33333 0.400358 8.42113 0.244078 8.57741C0.0877975 8.73369 0 8.94565 0 9.16667V15.8333C0 16.0543 0.0877975 16.2663 0.244078 16.4226C0.400358 16.5789 0.61232 16.6667 0.833333 16.6667C1.05435 16.6667 1.26631 16.5789 1.42259 16.4226C1.57887 16.2663 1.66667 16.0543 1.66667 15.8333V9.16667C1.66667 8.94565 1.57887 8.73369 1.42259 8.57741C1.26631 8.42113 1.05435 8.33333 0.833333 8.33333ZM5 0C4.77899 0 4.56703 0.0877973 4.41074 0.244078C4.25446 0.400358 4.16667 0.61232 4.16667 0.833333V15.8333C4.16667 16.0543 4.25446 16.2663 4.41074 16.4226C4.56703 16.5789 4.77899 16.6667 5 16.6667C5.22101 16.6667 5.43298 16.5789 5.58926 16.4226C5.74554 16.2663 5.83333 16.0543 5.83333 15.8333V0.833333C5.83333 0.61232 5.74554 0.400358 5.58926 0.244078C5.43298 0.0877973 5.22101 0 5 0ZM13.3333 11.6667C13.1123 11.6667 12.9004 11.7545 12.7441 11.9107C12.5878 12.067 12.5 12.279 12.5 12.5V15.8333C12.5 16.0543 12.5878 16.2663 12.7441 16.4226C12.9004 16.5789 13.1123 16.6667 13.3333 16.6667C13.5543 16.6667 13.7663 16.5789 13.9226 16.4226C14.0789 16.2663 14.1667 16.0543 14.1667 15.8333V12.5C14.1667 12.279 14.0789 12.067 13.9226 11.9107C13.7663 11.7545 13.5543 11.6667 13.3333 11.6667ZM9.16667 5C8.94565 5 8.73369 5.0878 8.57741 5.24408C8.42113 5.40036 8.33333 5.61232 8.33333 5.83333V15.8333C8.33333 16.0543 8.42113 16.2663 8.57741 16.4226C8.73369 16.5789 8.94565 16.6667 9.16667 16.6667C9.38768 16.6667 9.59964 16.5789 9.75592 16.4226C9.9122 16.2663 10 16.0543 10 15.8333V5.83333C10 5.61232 9.9122 5.40036 9.75592 5.24408C9.59964 5.0878 9.38768 5 9.16667 5Z" fill="#4F4F4F"/>
</svg>
