<svg width="24" height="19" viewBox="0 0 24 19" fill="none" xmlns="http://www.w3.org/2000/svg">
<path d="M0.75 3.32167C2.89681 2.29392 5.22925 1.71081 7.60714 1.60739C11.0357 1.60739 12.75 4.17882 16.1786 4.17882C18.5565 4.07539 20.8889 3.49228 23.0357 2.46453L19.6071 0.750244M0.75 10.1788C2.89681 9.15106 5.22925 8.56795 7.60714 8.46453C11.0357 8.46453 12.75 11.036 16.1786 11.036C18.5565 10.9325 20.8889 10.3494 23.0357 9.32167L19.6071 7.60739M0.75 17.036C2.89681 16.0082 5.22925 15.4251 7.60714 15.3217C11.0357 15.3217 12.75 17.8931 16.1786 17.8931C18.5565 17.7897 20.8889 17.2066 23.0357 16.1788L19.6071 14.4645" stroke="#42722D" stroke-width="1.5" stroke-linecap="round" stroke-linejoin="round"/>
</svg>
